<?xml version="1.0" encoding="UTF-8" standalone="no"?>
<!-- Created with Inkscape (http://www.inkscape.org/) -->

<svg
   version="1.1"
   id="svg89902"
   width="1200"
   height="1200"
   viewBox="0 0 1200 1200"
   sodipodi:docname="wings-vector-pd.svg"
   inkscape:version="1.2 (dc2aedaf03, 2022-05-15)"
   xmlns:inkscape="http://www.inkscape.org/namespaces/inkscape"
   xmlns:sodipodi="http://sodipodi.sourceforge.net/DTD/sodipodi-0.dtd"
   xmlns="http://www.w3.org/2000/svg"
   xmlns:svg="http://www.w3.org/2000/svg">
  <defs
     id="defs89906">
    <clipPath
       clipPathUnits="userSpaceOnUse"
       id="clipPath89918">
      <path
         d="M 0,900 H 900 V 0 H 0 Z"
         id="path89916" />
    </clipPath>
  </defs>
  <sodipodi:namedview
     id="namedview89904"
     pagecolor="#ffffff"
     bordercolor="#000000"
     borderopacity="0.25"
     inkscape:showpageshadow="2"
     inkscape:pageopacity="0.0"
     inkscape:pagecheckerboard="0"
     inkscape:deskcolor="#d1d1d1"
     showgrid="false"
     inkscape:zoom="0.6975"
     inkscape:cx="600"
     inkscape:cy="600.71685"
     inkscape:window-width="1920"
     inkscape:window-height="1017"
     inkscape:window-x="-8"
     inkscape:window-y="-8"
     inkscape:window-maximized="1"
     inkscape:current-layer="g89910">
    <inkscape:page
       x="0"
       y="0"
       id="page89908"
       width="1200"
       height="1200" />
  </sodipodi:namedview>
  <g
     id="g89910"
     inkscape:groupmode="layer"
     inkscape:label="Page 1"
     transform="matrix(1.3333333,0,0,-1.3333333,0,1200)">
    <g
       id="g89912">
      <g
         id="g89914"
         clip-path="url(#clipPath89918)">
        <g
           id="g89920"
           transform="translate(501.3398,239.9297)">
          <path
             d="m 0,0 -29.396,72.748 c -1.471,-0.62 -3.029,-1.17 -4.624,-1.641 l 20.978,-73.964 c -2.2,-0.4 -4.423,-0.764 -6.665,-1.094 L -36.6,70.426 c -1.702,-0.403 -3.457,-0.72 -5.218,-0.946 l 9.261,-74.874 c -2.181,-0.175 -4.379,-0.313 -6.592,-0.415 l -5.497,75 c -1.403,-0.108 -2.835,-0.163 -4.254,-0.163 l -1.31,0.016 -1.674,-75.062 c -2.204,0.03 -4.396,0.097 -6.572,0.2 l 5.368,75 c -1.807,0.134 -3.614,0.361 -5.368,0.674 L -71.259,-4.827 c -2.235,0.249 -4.445,0.531 -6.637,0.847 l 16.772,74.387 c -1.668,0.39 -3.304,0.866 -4.858,1.413 L -90.863,-1.645 c -2.272,0.49 -4.513,1.024 -6.733,1.59 l 29.247,72.781 c -1.441,0.601 -2.832,1.273 -4.122,2 L -110.798,3.877 c -2.335,0.799 -4.64,1.635 -6.896,2.518 l 43.361,69.453 c -1.102,0.714 -2.13,1.474 -3.059,2.264 l -53.803,-65.673 c -2.421,1.229 -4.773,2.511 -7.06,3.845 l 59.652,62.939 c -0.664,0.652 -1.24,1.301 -1.714,1.938 l -71.586,-55.702 c -2.414,1.874 -4.71,3.815 -6.885,5.814 l 77.9,50.71 c -0.236,0.374 -0.424,0.739 -0.553,1.049 l -89.748,-37.911 c -2.006,2.792 -3.785,5.665 -5.353,8.608 l 94.63,29.594 h 0.342 v 0.374 l 0.036,-0.012 c 0.037,0.125 0.116,0.338 0.271,0.649 l -0.31,0.16 -0.029,0.905 -1.591,-0.054 -82.401,43.154 c 2.052,2.307 4.259,4.546 6.608,6.711 l 78.079,-50.249 c 0.332,0.534 0.744,1.091 1.229,1.647 l -65.826,59.235 c 2.264,1.528 4.611,2.997 7.031,4.414 l 59.81,-62.561 c 0.757,0.748 1.611,1.485 2.543,2.185 l -48.749,67.39 c 2.262,1.018 4.577,1.984 6.931,2.909 l 43.493,-69.122 c 1.17,0.761 2.436,1.478 3.76,2.133 l -33.958,71.572 c 2.228,0.669 4.481,1.299 6.771,1.887 l 29.397,-72.454 c 1.476,0.623 3.03,1.177 4.622,1.648 l -21.007,73.66 c 2.195,0.402 4.411,0.767 6.65,1.094 l 16.934,-74.064 c 1.701,0.403 3.455,0.723 5.215,0.953 l -9.326,74.56 c 2.178,0.176 4.369,0.316 6.576,0.422 l 5.562,-74.691 c 1.434,0.113 2.909,0.17 4.349,0.17 l 1.192,-0.012 1.614,74.753 c 2.195,-0.032 4.376,-0.092 6.543,-0.191 l -5.24,-74.7 c 1.809,-0.135 3.616,-0.356 5.368,-0.665 l 12.647,74.388 c 2.225,-0.242 4.432,-0.52 6.621,-0.837 L -36.748,96.585 c 1.674,-0.39 3.315,-0.863 4.889,-1.413 l 24.629,73.206 c 2.269,-0.486 4.511,-1.015 6.727,-1.58 L -29.521,94.279 c 1.451,-0.601 2.845,-1.276 4.141,-2.003 l 38.044,70.625 c 2.33,-0.79 4.625,-1.618 6.873,-2.495 L -23.502,91.15 c 1.102,-0.71 2.125,-1.464 3.048,-2.248 l 53.481,65.516 c 2.411,-1.219 4.75,-2.491 7.03,-3.81 L -19.217,87.772 c 0.659,-0.645 1.24,-1.297 1.721,-1.938 L 53.7,141.515 c 2.418,-1.859 4.722,-3.782 6.904,-5.768 L -16.925,85.013 c 0.236,-0.378 0.433,-0.746 0.559,-1.06 l 89.431,38.059 c 2.022,-2.77 3.818,-5.626 5.403,-8.547 L -15.353,83.812 h -0.878 l -0.003,-0.379 99.213,-19.987 c -1.118,-3.24 -2.496,-6.41 -4.131,-9.503 l -95.111,29.362 c -0.041,-0.135 -0.126,-0.371 -0.292,-0.698 L 67.81,38.189 c -2.057,-2.312 -4.267,-4.554 -6.618,-6.726 l -78.098,50.533 c -0.339,-0.541 -0.763,-1.106 -1.259,-1.68 L 47.714,20.83 C 45.443,19.301 43.092,17.826 40.662,16.406 L -19.17,79.252 c -0.76,-0.752 -1.629,-1.494 -2.574,-2.204 L 27.053,9.392 C 24.783,8.371 22.46,7.401 20.096,6.474 l -43.507,69.413 c -1.168,-0.762 -2.439,-1.482 -3.774,-2.137 L 6.781,1.887 C 4.552,1.219 2.292,0.588 0,0 m -89.432,85.134 -91.355,18.083 c 1.119,3.236 2.499,6.413 4.135,9.509 l 90.06,-27.496 z m -94.713,-3.247 46.121,1.439 55.431,-0.003 -100.619,-10.603 c -0.543,3.012 -0.857,6.071 -0.933,9.167 M -48.9,193.312 c -85.74,0 -155.493,-49.337 -155.493,-109.979 0,-60.642 69.753,-109.976 155.493,-109.976 85.738,0 155.491,49.334 155.491,109.976 0,60.642 -69.753,109.979 -155.491,109.979 m 0,-232.564 c -101.291,0 -183.695,54.992 -183.695,122.585 0,67.596 82.404,122.585 183.695,122.585 101.289,0 183.693,-54.989 183.693,-122.585 0,-67.593 -82.404,-122.585 -183.693,-122.585 m -185.778,181.554 c -1.569,-2.425 -3.035,-4.895 -4.414,-7.393 -46.235,29.148 -129.742,82.593 -154.371,103.7 -27.43,23.508 -30.19,43.802 -25.756,68.927 0.036,0.193 0.373,0.5 0.93,0.693 0.299,0.098 0.649,0.158 1.006,0.158 0.584,0 1.185,-0.156 1.607,-0.56 13.477,-12.83 44.27,-40.11 99.084,-78.676 43.613,-30.683 76.394,-53.487 96.919,-67.699 -2.543,-2.731 -4.954,-5.527 -7.233,-8.384 l -148.353,95.816 z m -197.967,94.885 c 10e-4,0.099 0.219,0.336 0.614,0.526 0.367,0.177 0.825,0.283 1.294,0.283 0.54,0 1.093,-0.139 1.529,-0.474 13.558,-10.398 44.163,-32.296 96.829,-62.142 38.54,-21.838 68.487,-38.631 88.624,-49.868 -1.47,-3.343 -2.771,-6.737 -3.893,-10.179 l -141.039,74.696 139.164,-81.119 c -0.952,-3.685 -1.702,-7.418 -2.24,-11.195 -44.405,22.375 -125.542,63.929 -149.994,80.924 -26.86,18.67 -31.774,36.906 -30.888,58.548 m -1.255,-69.456 c 0.337,0.128 0.69,0.189 1.036,0.189 0.482,0 0.952,-0.121 1.352,-0.358 13.385,-7.885 43.266,-24.285 93.005,-45.499 37.213,-15.872 66.359,-28.149 85.764,-36.277 -0.02,-0.815 -0.046,-1.631 -0.046,-2.453 0,-2.373 0.089,-4.731 0.253,-7.075 l -145.17,57.387 145.923,-64.544 c 0.472,-3.329 1.113,-6.624 1.903,-9.883 -39.899,14.791 -124.724,46.743 -149.867,60.193 -25.928,13.87 -32.749,29.106 -35.018,47.703 0.03,0.093 0.294,0.404 0.865,0.617 m 49.227,-111.699 c -28.754,9.759 -38.925,23.776 -45.365,41.794 0.031,0.093 0.245,0.359 0.684,0.569 0.205,0.1 0.633,0.266 1.19,0.266 0.312,0 0.668,-0.051 1.043,-0.198 14.916,-5.719 47.943,-17.299 101.555,-30.599 32.239,-7.997 58.845,-14.507 78.897,-19.375 1.066,-2.974 2.263,-5.914 3.589,-8.815 l -149.142,31.731 153.031,-39.463 c 1.978,-3.598 4.145,-7.133 6.517,-10.585 -45.15,9.076 -126.048,25.869 -151.999,34.675 m 231.15,-95.527 c 0.866,-0.364 1.736,-0.73 2.612,-1.084 -21.154,-9.603 -71.481,-32.16 -88.367,-37.224 -12.536,-3.756 -22.527,-3.442 -33.418,1.053 -0.557,0.229 -0.721,0.492 -0.719,0.543 0.007,0.112 0.264,0.48 1.033,0.694 10.502,2.94 28.125,8.458 52.45,18.074 26.518,10.482 45.708,18.19 56.325,22.483 0.274,-0.134 0.545,-0.269 0.821,-0.399 l -74.644,-34.992 z m -25.42,12.654 c 2.026,-1.18 4.087,-2.329 6.177,-3.454 -0.175,-0.07 -0.351,-0.142 -0.528,-0.215 -28.528,-4.13 -107.313,-15.235 -131.679,-15.629 -24.38,-0.524 -36.289,7.562 -45.718,16.324 0.042,0.188 0.603,0.85 1.896,0.85 h 0.048 c 15.242,-0.191 41.53,0.371 80.164,4.136 33.13,3.234 58.548,5.828 74.833,7.517 1.668,-1.183 3.366,-2.344 5.09,-3.487 l -105.254,-16.956 z m -31.688,23.111 c 2.403,-2.194 4.883,-4.344 7.46,-6.436 -36.759,1.567 -122.264,5.598 -148.716,10.137 -26.412,4.533 -37.824,14.893 -46.883,29.08 0.066,0.236 0.74,0.838 1.84,0.838 0.204,0 0.423,-0.02 0.656,-0.068 14.006,-2.891 44.668,-8.381 92.683,-12.628 33.777,-2.991 60.557,-5.262 79.337,-6.82 1.993,-2.351 4.069,-4.667 6.245,-6.928 l -121.202,6.234 z m 6.992,180.178 c -3.136,-2.568 -6.148,-5.211 -9.023,-7.929 -45.04,35.732 -133.765,107.059 -158.431,133.73 -26.644,28.805 -26.38,51.692 -17.324,79.278 0.113,0.343 0.653,0.672 1.316,0.802 0.205,0.037 0.411,0.055 0.611,0.055 0.717,0 1.379,-0.242 1.722,-0.658 12.74,-15.476 42.281,-48.667 96.997,-97.111 50.702,-44.885 86.783,-76.385 105.779,-92.919 -3.545,-2.147 -6.98,-4.382 -10.304,-6.698 L -332.48,291.952 Z m 40.041,25.184 c -3.4,-1.632 -6.725,-3.333 -9.971,-5.103 -37.158,38.57 -129.734,135.647 -152.672,168.882 -23.93,34.669 -19.334,59.812 -4.164,89.137 0.212,0.412 0.94,0.729 1.729,0.756 h 0.109 c 0.819,0 1.556,-0.292 1.82,-0.731 10.986,-18.311 37.067,-57.941 88.293,-117.638 57.335,-66.817 93.089,-110.987 102.194,-124.266 -4.566,-1.527 -9.041,-3.169 -13.415,-4.921 L -299.542,365.367 Z M 151.746,57.843 c 0.816,3.166 1.47,6.375 1.982,9.615 L 303.775,133.825 154.619,74.859 c 0.235,2.806 0.367,5.63 0.367,8.474 0,0.343 -0.012,0.682 -0.018,1.023 19.166,8.02 49.575,20.815 89.606,37.889 49.736,21.208 79.617,37.609 93.004,45.496 0.697,0.412 1.588,0.467 2.396,0.169 0.571,-0.211 0.832,-0.524 0.856,-0.607 -2.267,-18.607 -9.085,-33.839 -35.011,-47.709 C 279.758,105.65 189.608,71.847 151.746,57.843 m 186.969,179.525 c 0.882,-21.642 -4.031,-39.882 -30.887,-58.547 -25.106,-17.452 -110.195,-60.903 -153.655,-82.766 -0.468,3.719 -1.14,7.401 -2.009,11.035 l 142.592,83.122 -144.41,-76.485 c -1.065,3.442 -2.304,6.839 -3.714,10.185 20.102,11.208 51.186,28.625 91.814,51.65 52.667,29.841 83.271,51.743 96.83,62.138 0.814,0.626 2.039,0.577 2.827,0.194 0.391,-0.189 0.608,-0.428 0.612,-0.526 M 54.532,206.657 c -4.244,1.762 -8.589,3.419 -13.025,4.967 7.569,11.59 43.776,56.45 103.016,125.49 51.22,59.692 77.306,99.323 88.297,117.637 0.277,0.46 1.045,0.764 1.928,0.732 0.787,-0.026 1.51,-0.34 1.727,-0.75 15.17,-29.33 19.765,-54.475 -4.166,-89.141 C 209.07,331.92 114.312,232.68 78.179,195.197 c -3.171,1.779 -6.41,3.498 -9.733,5.142 L 205.61,365.548 Z m 41.85,-22.989 c -3.246,2.317 -6.606,4.558 -10.069,6.717 18.313,15.904 55.158,48.046 107.527,94.409 54.753,48.477 84.273,81.651 96.994,97.11 0.439,0.539 1.4,0.781 2.336,0.604 0.662,-0.129 1.206,-0.459 1.318,-0.801 9.058,-27.587 9.319,-50.474 -17.329,-79.276 -25.085,-27.123 -116.378,-100.403 -160.65,-135.496 -2.794,2.715 -5.717,5.361 -8.769,7.933 l 130.81,117.265 z m 33.943,-32.129 c -2.216,2.857 -4.57,5.652 -7.048,8.391 20.388,14.106 54.134,37.566 99.38,69.401 54.825,38.567 85.614,65.848 99.085,78.674 0.688,0.657 1.84,0.661 2.618,0.401 0.553,-0.189 0.896,-0.498 0.927,-0.69 4.436,-25.125 1.673,-45.416 -25.76,-68.926 -25.153,-21.56 -111.781,-76.887 -157.325,-105.56 -1.293,2.434 -2.681,4.836 -4.156,7.207 l 143.282,108.627 z m 48.44,-228.107 c -10.885,-4.5 -20.878,-4.815 -33.417,-1.056 -16.912,5.073 -67.615,27.804 -88.63,37.342 -0.519,0.233 -0.672,0.506 -0.682,0.534 0.01,0.035 0.098,0.18 0.349,0.352 0.21,0.141 0.389,0.285 0.594,0.429 0.294,0.124 0.584,0.259 0.878,0.387 l 85.642,-31.588 -76.521,35.781 c 0.263,0.128 0.524,0.253 0.784,0.384 10.129,-4.101 30.045,-12.113 58.241,-23.255 24.343,-9.625 41.959,-15.142 52.447,-18.076 0.77,-0.211 1.028,-0.582 1.033,-0.69 0.003,-0.055 -0.16,-0.317 -0.718,-0.544 m 77.837,46.836 c -9.268,-8.663 -21.104,-16.692 -45.557,-16.228 -24.426,0.394 -103.183,11.503 -131.686,15.633 -0.881,0.354 -1.733,0.7 -2.546,1.026 1.831,1.011 3.629,2.051 5.41,3.1 L 199.984,-37.576 91.619,-20.303 c 1.711,1.146 3.385,2.317 5.035,3.5 16.948,-1.765 43.279,-4.453 77.997,-7.843 38.629,-3.768 64.9,-4.334 80.17,-4.143 1.369,-0.089 1.897,-0.655 1.781,-0.943 m 46.401,59.799 c 1.096,0 1.765,-0.6 1.783,-0.85 C 295.779,15.047 284.367,4.68 257.955,0.15 230.996,-4.476 142.569,-8.576 107.097,-10.076 c -0.484,0.051 -0.964,0.099 -1.438,0.15 2.373,1.936 4.668,3.918 6.894,5.944 L 245.28,9.861 120.192,3.422 c 2.134,2.223 4.175,4.495 6.137,6.805 18.99,1.566 47.28,3.956 83.331,7.148 48.002,4.245 78.672,9.734 92.684,12.626 0.232,0.044 0.452,0.066 0.659,0.066 m 32.418,68.508 c 0.439,-0.208 0.656,-0.476 0.672,-0.534 C 329.666,79.99 319.498,65.974 290.743,56.214 263.926,47.11 178.476,29.492 134.382,20.66 c 2.401,3.451 4.615,6.977 6.624,10.575 L 298.291,71.584 144.846,38.739 c 1.375,2.937 2.628,5.905 3.732,8.922 20.351,4.933 48.323,11.768 83.055,20.382 53.585,13.291 86.628,24.877 101.553,30.6 1.07,0.406 1.918,0.083 2.235,-0.068 m 21.154,67.26 c 0.499,4.094 -1.128,8.179 -4.462,11.215 -3.375,3.07 -8.181,4.83 -13.185,4.83 -1.802,0 -3.567,-0.231 -5.259,-0.669 19.204,19.23 21.612,38.465 20.871,56.647 -0.323,7.91 -8.108,14.106 -17.731,14.106 -2.091,0 -4.132,-0.333 -6.059,-0.919 13.886,20.797 13.434,40.39 10.187,58.782 -1.284,7.258 -8.677,12.524 -17.58,12.524 -5.099,0 -9.95,-1.833 -13.309,-5.032 -2.097,-1.996 -4.675,-4.39 -7.66,-7.093 18.372,28.212 14.712,52.775 7.318,75.297 -2.095,6.376 -9.148,10.826 -17.148,10.826 -5.846,0 -11.299,-2.391 -14.592,-6.395 -7.862,-9.55 -22.307,-26.033 -45.425,-48.875 5.526,6.762 10.074,12.659 13.336,17.385 29.021,42.041 19.568,73.85 5.029,101.957 -2.778,5.373 -9.164,8.849 -16.268,8.849 -6.779,0 -12.847,-3.107 -15.848,-8.107 C 208.012,443.211 182.388,404.295 131.839,345.386 103.194,312.009 76.819,280.603 57.571,256.958 38.405,233.416 29.991,222.351 26.513,216.34 c -23.339,6.544 -48.787,10.152 -75.413,10.152 -25.403,0 -49.727,-3.285 -72.177,-9.273 -3.824,6.233 -12.332,17.337 -30.425,39.559 -19.249,23.645 -45.624,55.05 -74.266,88.428 -50.549,58.907 -76.176,97.824 -86.951,115.777 -3.002,4.999 -9.073,8.106 -15.848,8.106 -7.108,0 -13.492,-3.474 -16.27,-8.848 -14.539,-28.109 -23.992,-59.916 5.029,-101.956 3.262,-4.727 7.812,-10.627 13.336,-17.387 -23.116,22.844 -37.563,39.326 -45.422,48.875 -3.296,4.004 -8.75,6.395 -14.592,6.395 -8.002,0 -15.056,-4.449 -17.152,-10.825 -7.392,-22.522 -11.053,-47.083 7.319,-75.297 -2.985,2.702 -5.563,5.097 -7.66,7.094 -3.359,3.198 -8.21,5.03 -13.309,5.03 -8.902,0 -16.296,-5.265 -17.58,-12.524 -3.247,-18.393 -3.697,-37.984 10.187,-58.781 -1.926,0.586 -3.966,0.916 -6.058,0.916 -9.62,0 -17.407,-6.193 -17.731,-14.102 -0.742,-18.184 1.665,-37.418 20.869,-56.651 -1.69,0.439 -3.456,0.672 -5.258,0.672 -5.005,0 -9.811,-1.759 -13.184,-4.833 -3.333,-3.032 -4.962,-7.117 -4.464,-11.212 2.273,-18.661 9.09,-40.14 42.436,-57.979 2.2,-1.178 4.851,-2.495 7.811,-3.9 -8.808,2.959 -15.62,5.448 -20.441,7.296 -2.371,0.908 -4.881,1.369 -7.464,1.369 -5.531,0 -10.829,-2.194 -14.176,-5.873 -3.363,-3.697 -4.384,-8.371 -2.802,-12.817 6.41,-17.999 17.916,-38.077 54.681,-50.556 0.963,-0.326 1.997,-0.662 3.09,-1.008 -1.934,0.375 -3.696,0.727 -5.22,1.043 -1.427,0.295 -2.888,0.442 -4.346,0.442 -6.118,0 -11.903,-2.699 -15.098,-7.047 -3.23,-4.395 -3.429,-9.736 -0.532,-14.295 9.175,-14.43 23.195,-29.978 57.598,-35.883 3.29,-0.563 7.43,-1.117 12.175,-1.66 h -0.728 c -1.812,0 -3.477,0.009 -5.272,0.031 -6.947,0 -13.286,-3.378 -16.152,-8.597 -2.887,-5.266 -1.804,-11.219 2.819,-15.54 15.258,-14.26 32.341,-20.619 55.388,-20.619 l 2.063,0.016 c 10.24,0.166 28.871,2.024 49.652,4.5 -9.349,-3.188 -16.815,-5.457 -22.23,-6.97 -6.767,-1.893 -11.46,-6.919 -11.949,-12.804 -0.492,-5.872 3.312,-11.371 9.69,-14.004 8.111,-3.346 16.02,-4.974 24.179,-4.974 h 0.003 c 6.782,0 13.73,1.094 21.242,3.346 17.281,5.179 64.307,26.124 90.803,38.151 3.308,1.5 5.875,3.81 7.442,6.541 26.388,-8.773 55.864,-13.69 86.945,-13.69 32.415,0 63.081,5.348 90.319,14.839 1.481,-3.154 4.248,-5.834 7.937,-7.511 26.497,-12.023 73.523,-32.969 90.802,-38.151 7.513,-2.251 14.461,-3.346 21.242,-3.346 h 0.003 c 8.159,0 16.068,1.628 24.18,4.977 6.377,2.633 10.182,8.131 9.692,14.004 -0.493,5.883 -5.183,10.909 -11.952,12.802 -5.416,1.516 -12.881,3.78 -22.23,6.973 20.783,-2.479 39.416,-4.337 49.653,-4.504 l 2.063,-0.016 c 23.046,0 40.131,6.363 55.386,20.622 4.625,4.322 5.708,10.275 2.823,15.536 -2.867,5.224 -9.208,8.599 -16.156,8.599 -1.793,-0.022 -3.457,-0.032 -5.268,-0.032 -0.233,0 -0.49,0.003 -0.728,0.003 4.743,0.541 8.881,1.093 12.175,1.66 34.402,5.902 48.42,21.451 57.597,35.884 2.897,4.557 2.696,9.899 -0.534,14.292 -3.193,4.346 -8.982,7.05 -15.095,7.05 -1.46,0 -2.923,-0.151 -4.348,-0.449 -1.526,-0.313 -3.287,-0.665 -5.221,-1.036 1.096,0.346 2.128,0.682 3.089,1.008 36.767,12.474 48.273,32.557 54.684,50.553 1.582,4.446 0.561,9.119 -2.804,12.817 -3.344,3.678 -8.643,5.873 -14.175,5.873 -2.584,0 -5.095,-0.458 -7.465,-1.369 -4.82,-1.85 -11.632,-4.335 -20.438,-7.297 2.957,1.407 5.606,2.723 7.808,3.9 33.347,17.838 40.166,39.322 42.436,57.98"
             style="fill:#000000;fill-opacity:1;fill-rule:nonzero;stroke:none"
             id="path89922" />
        </g>
        <g
           id="g89924"
           transform="translate(487.667,323.7422)">
          <path
             d="m 0,0 h 100.052 c -0.031,3.634 -0.414,7.21 -1.083,10.729 z"
             style="fill:#ffffff;fill-opacity:1;fill-rule:nonzero;stroke:none"
             id="path89926" />
        </g>
      </g>
    </g>
  </g>
</svg>
